<?xml version="1.0" encoding="UTF-8"?>
<svg width="512" height="512" viewBox="0 0 512 512" fill="none" xmlns="http://www.w3.org/2000/svg">
  <path d="M256 0C114.6 0 0 114.6 0 256C0 397.4 114.6 512 256 512C397.4 512 512 397.4 512 256C512 114.6 397.4 0 256 0ZM256 64C368.8 64 448 143.2 448 256C448 368.8 368.8 448 256 448C143.2 448 64 368.8 64 256C64 143.2 143.2 64 256 64Z" fill="#FFC107"/>
  <path d="M256 128C179.2 128 128 179.2 128 256C128 332.8 179.2 384 256 384C332.8 384 384 332.8 384 256C384 179.2 332.8 128 256 128ZM256 192C300.2 192 320 211.8 320 256C320 300.2 300.2 320 256 320C211.8 320 192 300.2 192 256C192 211.8 211.8 192 256 192Z" fill="#FFC107"/>
  <path d="M256 64C143.2 64 64 143.2 64 256C64 368.8 143.2 448 256 448C368.8 448 448 368.8 448 256C448 143.2 368.8 64 256 64ZM256 128C332.8 128 384 179.2 384 256C384 332.8 332.8 384 256 384C179.2 384 128 332.8 128 256C128 179.2 179.2 128 256 128Z" fill="#1A237E"/>
</svg> 